<svg xmlns="http://www.w3.org/2000/svg" xmlns:xlink="http://www.w3.org/1999/xlink" width="800" zoomAndPan="magnify" viewBox="0 0 600 149.999998" height="200" preserveAspectRatio="xMidYMid meet" version="1.0"><defs><g/><clipPath id="a3f0602415"><path d="M 80.558594 19.75 L 172.058594 19.75 L 172.058594 111.25 L 80.558594 111.25 Z M 80.558594 19.75 " clip-rule="nonzero"/></clipPath></defs><g clip-path="url(#a3f0602415)"><path fill="#ffffff" d="M 80.558594 19.75 L 172.058594 19.75 L 172.058594 111.25 L 80.558594 111.25 Z M 80.558594 19.75 " fill-opacity="1" fill-rule="nonzero"/></g><path stroke-linecap="round" transform="matrix(0.178711, 0, 0, 0.178711, 80.559164, 19.750046)" fill="none" stroke-linejoin="round" d="M 134.007737 210.010666 L 378.007731 210.010666 C 379.843796 210.010666 381.658004 210.185529 383.472211 210.535256 C 385.264561 210.90684 387.013195 211.431431 388.718113 212.130884 C 390.423031 212.830338 392.018659 213.704655 393.548714 214.710119 C 395.078768 215.737441 396.499533 216.895911 397.789151 218.207387 C 399.100626 219.497004 400.259096 220.917769 401.286418 222.447824 C 402.291883 223.977878 403.1662 225.595365 403.865653 227.278425 C 404.565107 228.983343 405.111555 230.731976 405.461282 232.546184 C 405.811008 234.338534 406.00773 236.152741 406.00773 238.010665 L 406.00773 362.010661 C 406.00773 363.846727 405.811008 365.660935 405.461282 367.453284 C 405.111555 369.267492 404.565107 371.016126 403.865653 372.721044 C 403.1662 374.404104 402.291883 376.02159 401.286418 377.551645 C 400.259096 379.081699 399.100626 380.502464 397.789151 381.792082 C 396.499533 383.103557 395.078768 384.262027 393.548714 385.289349 C 392.018659 386.294814 390.423031 387.169131 388.718113 387.868584 C 387.013195 388.568038 385.264561 389.092628 383.472211 389.464213 C 381.658004 389.813939 379.843796 390.010661 378.007731 390.010661 L 134.007737 390.010661 C 132.171672 390.010661 130.335606 389.813939 128.543256 389.464213 C 126.729049 389.092628 124.980415 388.568038 123.275497 387.868584 C 121.592437 387.169131 119.974951 386.294814 118.444896 385.289349 C 116.914841 384.262027 115.494076 383.103557 114.204459 381.792082 C 112.892984 380.502464 111.734514 379.081699 110.729049 377.551645 C 109.701727 376.02159 108.82741 374.404104 108.127956 372.721044 C 107.428503 371.016126 106.903913 369.267492 106.532328 367.453284 C 106.182601 365.660935 106.007738 363.846727 106.007738 362.010661 L 106.007738 238.010665 C 106.007738 236.152741 106.182601 234.338534 106.532328 232.546184 C 106.903913 230.731976 107.428503 228.983343 108.127956 227.278425 C 108.82741 225.595365 109.701727 223.977878 110.729049 222.447824 C 111.734514 220.917769 112.892984 219.497004 114.204459 218.207387 C 115.494076 216.895911 116.914841 215.737441 118.444896 214.710119 C 119.974951 213.704655 121.592437 212.830338 123.275497 212.130884 C 124.980415 211.431431 126.729049 210.90684 128.543256 210.535256 C 130.335606 210.185529 132.171672 210.010666 134.007737 210.010666 Z M 134.007737 210.010666 " stroke="#0f1829" stroke-width="6" stroke-opacity="1" stroke-miterlimit="4"/><path stroke-linecap="round" transform="matrix(0.178711, 0, 0, 0.178711, 80.559164, 19.750046)" fill="none" stroke-linejoin="round" d="M 126.007737 230.010665 L 255.996805 319.999734 L 386.00773 230.010665 " stroke="#0f1829" stroke-width="6" stroke-opacity="1" stroke-miterlimit="4"/><path stroke-linecap="round" transform="matrix(0.178711, 0, 0, 0.178711, 80.559164, 19.750046)" fill="none" stroke-linejoin="round" d="M 206.007735 179.999737 L 255.996805 179.999737 " stroke="#0f1829" stroke-width="3" stroke-opacity="0.25" stroke-miterlimit="4"/><path stroke-linecap="round" transform="matrix(0.178711, 0, 0, 0.178711, 80.559164, 19.750046)" fill="none" stroke-linejoin="round" d="M 255.996805 179.999737 L 306.007733 179.999737 " stroke="#0f1829" stroke-width="3" stroke-opacity="0.25" stroke-miterlimit="4"/><path fill="#0f1829" d="M 118.804688 51.917969 C 118.804688 52.109375 118.765625 52.289062 118.695312 52.464844 C 118.621094 52.640625 118.519531 52.792969 118.382812 52.929688 C 118.25 53.0625 118.097656 53.167969 117.921875 53.238281 C 117.746094 53.3125 117.5625 53.347656 117.375 53.347656 C 117.183594 53.347656 117 53.3125 116.828125 53.238281 C 116.652344 53.167969 116.496094 53.0625 116.363281 52.929688 C 116.230469 52.792969 116.125 52.640625 116.054688 52.464844 C 115.980469 52.289062 115.945312 52.109375 115.945312 51.917969 C 115.945312 51.726562 115.980469 51.546875 116.054688 51.371094 C 116.125 51.195312 116.230469 51.042969 116.363281 50.90625 C 116.496094 50.773438 116.652344 50.667969 116.828125 50.597656 C 117 50.523438 117.183594 50.488281 117.375 50.488281 C 117.5625 50.488281 117.746094 50.523438 117.921875 50.597656 C 118.097656 50.667969 118.25 50.773438 118.382812 50.90625 C 118.519531 51.042969 118.621094 51.195312 118.695312 51.371094 C 118.765625 51.546875 118.804688 51.726562 118.804688 51.917969 Z M 118.804688 51.917969 " fill-opacity="0.4" fill-rule="nonzero"/><path fill="#3dd6c0" d="M 128.273438 51.917969 C 128.273438 52.179688 128.226562 52.429688 128.125 52.671875 C 128.027344 52.910156 127.882812 53.125 127.699219 53.308594 C 127.515625 53.492188 127.300781 53.632812 127.0625 53.734375 C 126.820312 53.832031 126.570312 53.882812 126.308594 53.882812 C 126.046875 53.882812 125.796875 53.832031 125.558594 53.734375 C 125.316406 53.632812 125.101562 53.492188 124.917969 53.308594 C 124.734375 53.125 124.59375 52.910156 124.492188 52.671875 C 124.394531 52.429688 124.34375 52.179688 124.34375 51.917969 C 124.34375 51.65625 124.394531 51.40625 124.492188 51.164062 C 124.59375 50.925781 124.734375 50.710938 124.917969 50.527344 C 125.101562 50.34375 125.316406 50.203125 125.558594 50.101562 C 125.796875 50.003906 126.046875 49.953125 126.308594 49.953125 C 126.570312 49.953125 126.820312 50.003906 127.0625 50.101562 C 127.300781 50.203125 127.515625 50.34375 127.699219 50.527344 C 127.882812 50.710938 128.027344 50.925781 128.125 51.164062 C 128.226562 51.40625 128.273438 51.65625 128.273438 51.917969 Z M 128.273438 51.917969 " fill-opacity="1" fill-rule="nonzero"/><path fill="#0f1829" d="M 136.675781 51.917969 C 136.675781 52.109375 136.636719 52.289062 136.566406 52.464844 C 136.492188 52.640625 136.390625 52.792969 136.253906 52.929688 C 136.121094 53.0625 135.96875 53.167969 135.792969 53.238281 C 135.617188 53.3125 135.433594 53.347656 135.246094 53.347656 C 135.054688 53.347656 134.871094 53.3125 134.699219 53.238281 C 134.523438 53.167969 134.367188 53.0625 134.234375 52.929688 C 134.101562 52.792969 133.996094 52.640625 133.925781 52.464844 C 133.851562 52.289062 133.816406 52.109375 133.816406 51.917969 C 133.816406 51.726562 133.851562 51.546875 133.925781 51.371094 C 133.996094 51.195312 134.101562 51.042969 134.234375 50.90625 C 134.367188 50.773438 134.523438 50.667969 134.699219 50.597656 C 134.871094 50.523438 135.054688 50.488281 135.246094 50.488281 C 135.433594 50.488281 135.617188 50.523438 135.792969 50.597656 C 135.96875 50.667969 136.121094 50.773438 136.253906 50.90625 C 136.390625 51.042969 136.492188 51.195312 136.566406 51.371094 C 136.636719 51.546875 136.675781 51.726562 136.675781 51.917969 Z M 136.675781 51.917969 " fill-opacity="0.4" fill-rule="nonzero"/><g fill="#080d1a" fill-opacity="1"><g transform="translate(199.418987, 91.774995)"><g><path d="M 16.375 -36.8125 C 22.582031 -36.8125 27.191406 -35.257812 30.203125 -32.15625 C 33.222656 -29.0625 34.734375 -24.617188 34.734375 -18.828125 C 34.734375 -15.046875 33.992188 -11.742188 32.515625 -8.921875 C 31.046875 -6.097656 28.90625 -3.90625 26.09375 -2.34375 C 23.289062 -0.78125 19.894531 0 15.90625 0 C 15.382812 0 14.691406 -0.015625 13.828125 -0.046875 C 12.960938 -0.0859375 12.070312 -0.113281 11.15625 -0.125 C 10.238281 -0.144531 9.394531 -0.15625 8.625 -0.15625 C 7.414062 -0.15625 6.222656 -0.144531 5.046875 -0.125 C 3.867188 -0.113281 2.914062 -0.0703125 2.1875 0 L 2.1875 -1.046875 C 3.363281 -1.109375 4.253906 -1.242188 4.859375 -1.453125 C 5.460938 -1.660156 5.867188 -2.078125 6.078125 -2.703125 C 6.285156 -3.328125 6.390625 -4.265625 6.390625 -5.515625 L 6.390625 -31.296875 C 6.390625 -32.585938 6.285156 -33.535156 6.078125 -34.140625 C 5.867188 -34.742188 5.460938 -35.15625 4.859375 -35.375 C 4.253906 -35.601562 3.363281 -35.738281 2.1875 -35.78125 L 2.1875 -36.8125 C 2.914062 -36.78125 3.867188 -36.738281 5.046875 -36.6875 C 6.222656 -36.632812 7.382812 -36.625 8.53125 -36.65625 C 9.738281 -36.695312 11.101562 -36.734375 12.625 -36.765625 C 14.15625 -36.796875 15.40625 -36.8125 16.375 -36.8125 Z M 15.078125 -35.875 C 13.484375 -35.875 12.441406 -35.578125 11.953125 -34.984375 C 11.472656 -34.398438 11.234375 -33.207031 11.234375 -31.40625 L 11.234375 -5.40625 C 11.234375 -3.601562 11.484375 -2.40625 11.984375 -1.8125 C 12.484375 -1.226562 13.53125 -0.9375 15.125 -0.9375 C 18.90625 -0.9375 21.835938 -1.617188 23.921875 -2.984375 C 26.003906 -4.359375 27.457031 -6.363281 28.28125 -9 C 29.113281 -11.632812 29.53125 -14.835938 29.53125 -18.609375 C 29.53125 -22.492188 29.070312 -25.707031 28.15625 -28.25 C 27.238281 -30.800781 25.726562 -32.707031 23.625 -33.96875 C 21.53125 -35.238281 18.679688 -35.875 15.078125 -35.875 Z M 15.078125 -35.875 "/></g></g></g><g fill="#080d1a" fill-opacity="1"><g transform="translate(237.012128, 91.774995)"><g><path d="M 8.890625 0.359375 C 7.472656 0.359375 6.242188 0.09375 5.203125 -0.4375 C 4.160156 -0.976562 3.367188 -1.734375 2.828125 -2.703125 C 2.296875 -3.671875 2.03125 -4.796875 2.03125 -6.078125 C 2.03125 -7.609375 2.382812 -8.859375 3.09375 -9.828125 C 3.800781 -10.796875 4.707031 -11.570312 5.8125 -12.15625 C 6.925781 -12.75 8.097656 -13.242188 9.328125 -13.640625 C 10.566406 -14.046875 11.738281 -14.429688 12.84375 -14.796875 C 13.957031 -15.160156 14.867188 -15.582031 15.578125 -16.0625 C 16.285156 -16.550781 16.640625 -17.191406 16.640625 -17.984375 L 16.640625 -21.21875 C 16.640625 -22.675781 16.421875 -23.785156 15.984375 -24.546875 C 15.554688 -25.304688 14.976562 -25.816406 14.25 -26.078125 C 13.519531 -26.335938 12.703125 -26.46875 11.796875 -26.46875 C 10.929688 -26.46875 10.003906 -26.34375 9.015625 -26.09375 C 8.035156 -25.851562 7.25 -25.351562 6.65625 -24.59375 C 7.3125 -24.457031 7.878906 -24.109375 8.359375 -23.546875 C 8.847656 -22.992188 9.09375 -22.285156 9.09375 -21.421875 C 9.09375 -20.554688 8.816406 -19.867188 8.265625 -19.359375 C 7.710938 -18.859375 7.003906 -18.609375 6.140625 -18.609375 C 5.128906 -18.609375 4.390625 -18.929688 3.921875 -19.578125 C 3.453125 -20.222656 3.21875 -20.941406 3.21875 -21.734375 C 3.21875 -22.640625 3.441406 -23.367188 3.890625 -23.921875 C 4.347656 -24.472656 4.921875 -24.992188 5.609375 -25.484375 C 6.410156 -26.035156 7.441406 -26.507812 8.703125 -26.90625 C 9.972656 -27.3125 11.40625 -27.515625 13 -27.515625 C 14.414062 -27.515625 15.625 -27.347656 16.625 -27.015625 C 17.632812 -26.679688 18.472656 -26.203125 19.140625 -25.578125 C 20.035156 -24.753906 20.617188 -23.742188 20.890625 -22.546875 C 21.171875 -21.347656 21.3125 -19.914062 21.3125 -18.25 L 21.3125 -3.796875 C 21.3125 -2.929688 21.441406 -2.304688 21.703125 -1.921875 C 21.960938 -1.546875 22.375 -1.359375 22.9375 -1.359375 C 23.3125 -1.359375 23.671875 -1.441406 24.015625 -1.609375 C 24.367188 -1.785156 24.785156 -2.0625 25.265625 -2.4375 L 25.84375 -1.5625 C 25.113281 -1.007812 24.421875 -0.550781 23.765625 -0.1875 C 23.109375 0.175781 22.222656 0.359375 21.109375 0.359375 C 20.109375 0.359375 19.273438 0.1875 18.609375 -0.15625 C 17.953125 -0.5 17.457031 -1.007812 17.125 -1.6875 C 16.800781 -2.363281 16.640625 -3.222656 16.640625 -4.265625 C 15.703125 -2.703125 14.582031 -1.539062 13.28125 -0.78125 C 11.988281 -0.0195312 10.523438 0.359375 8.890625 0.359375 Z M 10.765625 -1.71875 C 11.910156 -1.71875 12.972656 -2.046875 13.953125 -2.703125 C 14.941406 -3.359375 15.835938 -4.347656 16.640625 -5.671875 L 16.640625 -15.859375 C 16.222656 -15.265625 15.613281 -14.769531 14.8125 -14.375 C 14.019531 -13.976562 13.15625 -13.578125 12.21875 -13.171875 C 11.28125 -12.773438 10.382812 -12.304688 9.53125 -11.765625 C 8.6875 -11.234375 7.988281 -10.535156 7.4375 -9.671875 C 6.882812 -8.804688 6.609375 -7.679688 6.609375 -6.296875 C 6.609375 -4.910156 6.976562 -3.800781 7.71875 -2.96875 C 8.46875 -2.132812 9.484375 -1.71875 10.765625 -1.71875 Z M 10.765625 -1.71875 "/></g></g></g><g fill="#080d1a" fill-opacity="1"><g transform="translate(262.906157, 91.774995)"><g><path d="M 7.421875 -39.78125 C 8.328125 -39.78125 9.109375 -39.445312 9.765625 -38.78125 C 10.421875 -38.125 10.75 -37.347656 10.75 -36.453125 C 10.75 -35.546875 10.421875 -34.765625 9.765625 -34.109375 C 9.109375 -33.453125 8.328125 -33.125 7.421875 -33.125 C 6.523438 -33.125 5.742188 -33.453125 5.078125 -34.109375 C 4.421875 -34.765625 4.09375 -35.546875 4.09375 -36.453125 C 4.09375 -37.347656 4.421875 -38.125 5.078125 -38.78125 C 5.742188 -39.445312 6.523438 -39.78125 7.421875 -39.78125 Z M 10.140625 -27.359375 L 10.140625 -4.84375 C 10.140625 -3.382812 10.441406 -2.394531 11.046875 -1.875 C 11.648438 -1.351562 12.664062 -1.09375 14.09375 -1.09375 L 14.09375 0 C 13.5 -0.03125 12.601562 -0.0703125 11.40625 -0.125 C 10.21875 -0.175781 9.015625 -0.203125 7.796875 -0.203125 C 6.617188 -0.203125 5.421875 -0.175781 4.203125 -0.125 C 2.992188 -0.0703125 2.097656 -0.03125 1.515625 0 L 1.515625 -1.09375 C 2.929688 -1.09375 3.941406 -1.351562 4.546875 -1.875 C 5.148438 -2.394531 5.453125 -3.382812 5.453125 -4.84375 L 5.453125 -21.109375 C 5.453125 -22.671875 5.175781 -23.820312 4.625 -24.5625 C 4.070312 -25.3125 3.035156 -25.6875 1.515625 -25.6875 L 1.515625 -26.78125 C 2.617188 -26.675781 3.691406 -26.625 4.734375 -26.625 C 5.734375 -26.625 6.691406 -26.679688 7.609375 -26.796875 C 8.535156 -26.921875 9.378906 -27.109375 10.140625 -27.359375 Z M 10.140625 -27.359375 "/></g></g></g><g fill="#080d1a" fill-opacity="1"><g transform="translate(278.141001, 91.774995)"><g><path d="M 9.78125 -40.765625 L 9.78125 -4.84375 C 9.78125 -3.382812 10.082031 -2.394531 10.6875 -1.875 C 11.289062 -1.351562 12.304688 -1.09375 13.734375 -1.09375 L 13.734375 0 C 13.140625 -0.03125 12.242188 -0.0703125 11.046875 -0.125 C 9.847656 -0.175781 8.644531 -0.203125 7.4375 -0.203125 C 6.257812 -0.203125 5.0625 -0.175781 3.84375 -0.125 C 2.632812 -0.0703125 1.734375 -0.03125 1.140625 0 L 1.140625 -1.09375 C 2.566406 -1.09375 3.582031 -1.351562 4.1875 -1.875 C 4.789062 -2.394531 5.09375 -3.382812 5.09375 -4.84375 L 5.09375 -34.53125 C 5.09375 -36.09375 4.816406 -37.242188 4.265625 -37.984375 C 3.710938 -38.734375 2.671875 -39.109375 1.140625 -39.109375 L 1.140625 -40.203125 C 2.253906 -40.097656 3.332031 -40.046875 4.375 -40.046875 C 5.375 -40.046875 6.332031 -40.101562 7.25 -40.21875 C 8.164062 -40.34375 9.007812 -40.523438 9.78125 -40.765625 Z M 9.78125 -40.765625 "/></g></g></g><g fill="#080d1a" fill-opacity="1"><g transform="translate(293.011876, 91.774995)"><g><path d="M 25.6875 -26.78125 L 25.6875 -25.734375 C 25.03125 -25.671875 24.421875 -25.378906 23.859375 -24.859375 C 23.304688 -24.335938 22.789062 -23.414062 22.3125 -22.09375 L 13.78125 0.265625 L 12.890625 0.265625 L 3.328125 -22.78125 C 2.671875 -24.125 2.019531 -24.941406 1.375 -25.234375 C 0.738281 -25.535156 0.210938 -25.6875 -0.203125 -25.6875 L -0.203125 -26.78125 C 0.554688 -26.675781 1.351562 -26.597656 2.1875 -26.546875 C 3.019531 -26.492188 3.921875 -26.46875 4.890625 -26.46875 C 5.960938 -26.46875 7.097656 -26.5 8.296875 -26.5625 C 9.492188 -26.632812 10.609375 -26.707031 11.640625 -26.78125 L 11.640625 -25.6875 C 10.773438 -25.6875 10.003906 -25.625 9.328125 -25.5 C 8.648438 -25.382812 8.222656 -25.019531 8.046875 -24.40625 C 7.878906 -23.800781 8.09375 -22.769531 8.6875 -21.3125 L 15.078125 -5.453125 L 14.765625 -5.359375 L 20.703125 -20.859375 C 21.148438 -21.992188 21.328125 -22.898438 21.234375 -23.578125 C 21.148438 -24.253906 20.796875 -24.765625 20.171875 -25.109375 C 19.546875 -25.460938 18.613281 -25.671875 17.375 -25.734375 L 17.375 -26.78125 C 17.988281 -26.75 18.519531 -26.722656 18.96875 -26.703125 C 19.425781 -26.679688 19.867188 -26.660156 20.296875 -26.640625 C 20.734375 -26.628906 21.210938 -26.625 21.734375 -26.625 C 22.535156 -26.625 23.253906 -26.640625 23.890625 -26.671875 C 24.535156 -26.710938 25.132812 -26.75 25.6875 -26.78125 Z M 13.78125 0.265625 L 12.015625 4.78125 C 11.660156 5.644531 11.300781 6.375 10.9375 6.96875 C 10.582031 7.5625 10.195312 8.046875 9.78125 8.421875 C 9.21875 8.941406 8.554688 9.296875 7.796875 9.484375 C 7.035156 9.679688 6.34375 9.78125 5.71875 9.78125 C 5.0625 9.78125 4.460938 9.65625 3.921875 9.40625 C 3.390625 9.164062 2.96875 8.8125 2.65625 8.34375 C 2.34375 7.875 2.1875 7.3125 2.1875 6.65625 C 2.1875 5.820312 2.425781 5.15625 2.90625 4.65625 C 3.394531 4.15625 4.070312 3.90625 4.9375 3.90625 C 5.664062 3.90625 6.289062 4.109375 6.8125 4.515625 C 7.332031 4.929688 7.59375 5.539062 7.59375 6.34375 C 7.59375 6.9375 7.453125 7.421875 7.171875 7.796875 C 6.898438 8.179688 6.570312 8.476562 6.1875 8.6875 C 6.257812 8.71875 6.320312 8.734375 6.375 8.734375 C 6.425781 8.734375 6.46875 8.734375 6.5 8.734375 C 7.4375 8.734375 8.269531 8.410156 9 7.765625 C 9.726562 7.128906 10.367188 6.101562 10.921875 4.6875 L 12.796875 -0.15625 Z M 13.78125 0.265625 "/></g></g></g><g fill="#f4f0e8" fill-opacity="1"><g transform="translate(319.219761, 91.774995)"><g/></g></g><g fill="#e8b84b" fill-opacity="1"><g transform="translate(332.168983, 91.774995)"><g><path d="M 3.125 -7.4375 C 2.050781 -5.945312 1.492188 -4.738281 1.453125 -3.8125 C 1.421875 -2.894531 1.800781 -2.21875 2.59375 -1.78125 C 3.394531 -1.351562 4.472656 -1.109375 5.828125 -1.046875 L 5.5625 0 C 4.101562 -0.0703125 2.84375 -0.113281 1.78125 -0.125 C 0.726562 -0.144531 -0.265625 -0.15625 -1.203125 -0.15625 C -1.992188 -0.15625 -2.648438 -0.144531 -3.171875 -0.125 C -3.691406 -0.113281 -4.226562 -0.0703125 -4.78125 0 L -4.578125 -1.046875 C -3.953125 -1.210938 -3.367188 -1.484375 -2.828125 -1.859375 C -2.296875 -2.242188 -1.691406 -2.816406 -1.015625 -3.578125 C -0.335938 -4.347656 0.429688 -5.335938 1.296875 -6.546875 L 22.984375 -37.078125 C 23.429688 -37.046875 23.890625 -37.03125 24.359375 -37.03125 C 24.828125 -37.03125 25.253906 -37.046875 25.640625 -37.078125 L 27.71875 -4.375 C 27.820312 -3.125 28.140625 -2.265625 28.671875 -1.796875 C 29.210938 -1.328125 29.742188 -1.078125 30.265625 -1.046875 L 30.0625 0 C 29.1875 -0.0703125 28.03125 -0.113281 26.59375 -0.125 C 25.15625 -0.144531 23.796875 -0.15625 22.515625 -0.15625 C 20.953125 -0.15625 19.476562 -0.144531 18.09375 -0.125 C 16.707031 -0.113281 15.582031 -0.0703125 14.71875 0 L 14.921875 -1.046875 C 16.585938 -1.109375 17.773438 -1.40625 18.484375 -1.9375 C 19.191406 -2.476562 19.492188 -3.632812 19.390625 -5.40625 L 18.140625 -29.328125 L 19.921875 -31.203125 Z M 7.953125 -14.96875 L 23.140625 -14.96875 L 22.71875 -13.9375 L 7.015625 -13.9375 Z M 7.953125 -14.96875 "/></g></g></g><g fill="#e8b84b" fill-opacity="1"><g transform="translate(366.122399, 91.774995)"><g><path d="M 11.640625 -5.515625 C 11.335938 -4.265625 11.203125 -3.328125 11.234375 -2.703125 C 11.265625 -2.078125 11.554688 -1.660156 12.109375 -1.453125 C 12.671875 -1.242188 13.539062 -1.109375 14.71875 -1.046875 L 14.515625 0 C 13.503906 -0.0703125 12.226562 -0.113281 10.6875 -0.125 C 9.144531 -0.144531 7.59375 -0.15625 6.03125 -0.15625 C 4.363281 -0.15625 2.8125 -0.144531 1.375 -0.125 C -0.0625 -0.113281 -1.226562 -0.0703125 -2.125 0 L -1.875 -1.046875 C -0.726562 -1.109375 0.160156 -1.242188 0.796875 -1.453125 C 1.441406 -1.660156 1.953125 -2.078125 2.328125 -2.703125 C 2.710938 -3.328125 3.0625 -4.265625 3.375 -5.515625 L 10.25 -31.296875 C 10.59375 -32.585938 10.726562 -33.535156 10.65625 -34.140625 C 10.59375 -34.742188 10.289062 -35.15625 9.75 -35.375 C 9.207031 -35.601562 8.347656 -35.738281 7.171875 -35.78125 L 7.4375 -36.8125 C 8.269531 -36.78125 9.410156 -36.742188 10.859375 -36.703125 C 12.316406 -36.671875 13.894531 -36.65625 15.59375 -36.65625 C 17.15625 -36.65625 18.691406 -36.671875 20.203125 -36.703125 C 21.710938 -36.742188 23.019531 -36.78125 24.125 -36.8125 L 23.875 -35.78125 C 22.6875 -35.738281 21.765625 -35.601562 21.109375 -35.375 C 20.453125 -35.15625 19.941406 -34.742188 19.578125 -34.140625 C 19.210938 -33.535156 18.859375 -32.585938 18.515625 -31.296875 Z M 11.640625 -5.515625 "/></g></g></g><g fill="#f4f0e8" fill-opacity="1"><g transform="translate(386.403354, 91.774995)"><g/></g></g><g fill="#080d1a" fill-opacity="1"><g transform="translate(399.352569, 91.774995)"><g><path d="M 43.109375 -36.8125 L 43.109375 -35.78125 C 41.929688 -35.738281 41.035156 -35.601562 40.421875 -35.375 C 39.816406 -35.15625 39.410156 -34.742188 39.203125 -34.140625 C 38.992188 -33.535156 38.890625 -32.585938 38.890625 -31.296875 L 38.890625 -5.515625 C 38.890625 -4.265625 38.992188 -3.328125 39.203125 -2.703125 C 39.410156 -2.078125 39.816406 -1.660156 40.421875 -1.453125 C 41.035156 -1.242188 41.929688 -1.109375 43.109375 -1.046875 L 43.109375 0 C 42.304688 -0.0703125 41.304688 -0.113281 40.109375 -0.125 C 38.921875 -0.144531 37.71875 -0.15625 36.5 -0.15625 C 35.144531 -0.15625 33.878906 -0.144531 32.703125 -0.125 C 31.523438 -0.113281 30.570312 -0.0703125 29.84375 0 L 29.84375 -1.046875 C 31.019531 -1.109375 31.910156 -1.242188 32.515625 -1.453125 C 33.128906 -1.660156 33.539062 -2.078125 33.75 -2.703125 C 33.957031 -3.328125 34.0625 -4.265625 34.0625 -5.515625 L 34.0625 -34.109375 L 34.265625 -33.953125 L 21.53125 0.265625 L 20.703125 0.265625 L 7.59375 -33.484375 L 7.59375 -6.03125 C 7.59375 -4.78125 7.703125 -3.800781 7.921875 -3.09375 C 8.148438 -2.382812 8.601562 -1.878906 9.28125 -1.578125 C 9.957031 -1.285156 10.972656 -1.109375 12.328125 -1.046875 L 12.328125 0 C 11.703125 -0.0703125 10.882812 -0.113281 9.875 -0.125 C 8.875 -0.144531 7.921875 -0.15625 7.015625 -0.15625 C 6.148438 -0.15625 5.273438 -0.144531 4.390625 -0.125 C 3.503906 -0.113281 2.769531 -0.0703125 2.1875 0 L 2.1875 -1.046875 C 3.363281 -1.109375 4.253906 -1.285156 4.859375 -1.578125 C 5.460938 -1.878906 5.867188 -2.382812 6.078125 -3.09375 C 6.285156 -3.800781 6.390625 -4.78125 6.390625 -6.03125 L 6.390625 -31.296875 C 6.390625 -32.585938 6.285156 -33.535156 6.078125 -34.140625 C 5.867188 -34.742188 5.460938 -35.15625 4.859375 -35.375 C 4.253906 -35.601562 3.363281 -35.738281 2.1875 -35.78125 L 2.1875 -36.8125 C 2.769531 -36.78125 3.503906 -36.742188 4.390625 -36.703125 C 5.273438 -36.671875 6.148438 -36.65625 7.015625 -36.65625 C 7.773438 -36.65625 8.5625 -36.671875 9.375 -36.703125 C 10.195312 -36.742188 10.882812 -36.78125 11.4375 -36.8125 L 23.25 -5.71875 L 22.359375 -5.296875 L 34.0625 -36.65625 C 34.476562 -36.65625 34.882812 -36.65625 35.28125 -36.65625 C 35.675781 -36.65625 36.082031 -36.65625 36.5 -36.65625 C 37.71875 -36.65625 38.921875 -36.671875 40.109375 -36.703125 C 41.304688 -36.742188 42.304688 -36.78125 43.109375 -36.8125 Z M 43.109375 -36.8125 "/></g></g></g><g fill="#080d1a" fill-opacity="1"><g transform="translate(444.641129, 91.774995)"><g><path d="M 8.890625 0.359375 C 7.472656 0.359375 6.242188 0.09375 5.203125 -0.4375 C 4.160156 -0.976562 3.367188 -1.734375 2.828125 -2.703125 C 2.296875 -3.671875 2.03125 -4.796875 2.03125 -6.078125 C 2.03125 -7.609375 2.382812 -8.859375 3.09375 -9.828125 C 3.800781 -10.796875 4.707031 -11.570312 5.8125 -12.15625 C 6.925781 -12.75 8.097656 -13.242188 9.328125 -13.640625 C 10.566406 -14.046875 11.738281 -14.429688 12.84375 -14.796875 C 13.957031 -15.160156 14.867188 -15.582031 15.578125 -16.0625 C 16.285156 -16.550781 16.640625 -17.191406 16.640625 -17.984375 L 16.640625 -21.21875 C 16.640625 -22.675781 16.421875 -23.785156 15.984375 -24.546875 C 15.554688 -25.304688 14.976562 -25.816406 14.25 -26.078125 C 13.519531 -26.335938 12.703125 -26.46875 11.796875 -26.46875 C 10.929688 -26.46875 10.003906 -26.34375 9.015625 -26.09375 C 8.035156 -25.851562 7.25 -25.351562 6.65625 -24.59375 C 7.3125 -24.457031 7.878906 -24.109375 8.359375 -23.546875 C 8.847656 -22.992188 9.09375 -22.285156 9.09375 -21.421875 C 9.09375 -20.554688 8.816406 -19.867188 8.265625 -19.359375 C 7.710938 -18.859375 7.003906 -18.609375 6.140625 -18.609375 C 5.128906 -18.609375 4.390625 -18.929688 3.921875 -19.578125 C 3.453125 -20.222656 3.21875 -20.941406 3.21875 -21.734375 C 3.21875 -22.640625 3.441406 -23.367188 3.890625 -23.921875 C 4.347656 -24.472656 4.921875 -24.992188 5.609375 -25.484375 C 6.410156 -26.035156 7.441406 -26.507812 8.703125 -26.90625 C 9.972656 -27.3125 11.40625 -27.515625 13 -27.515625 C 14.414062 -27.515625 15.625 -27.347656 16.625 -27.015625 C 17.632812 -26.679688 18.472656 -26.203125 19.140625 -25.578125 C 20.035156 -24.753906 20.617188 -23.742188 20.890625 -22.546875 C 21.171875 -21.347656 21.3125 -19.914062 21.3125 -18.25 L 21.3125 -3.796875 C 21.3125 -2.929688 21.441406 -2.304688 21.703125 -1.921875 C 21.960938 -1.546875 22.375 -1.359375 22.9375 -1.359375 C 23.3125 -1.359375 23.671875 -1.441406 24.015625 -1.609375 C 24.367188 -1.785156 24.785156 -2.0625 25.265625 -2.4375 L 25.84375 -1.5625 C 25.113281 -1.007812 24.421875 -0.550781 23.765625 -0.1875 C 23.109375 0.175781 22.222656 0.359375 21.109375 0.359375 C 20.109375 0.359375 19.273438 0.1875 18.609375 -0.15625 C 17.953125 -0.5 17.457031 -1.007812 17.125 -1.6875 C 16.800781 -2.363281 16.640625 -3.222656 16.640625 -4.265625 C 15.703125 -2.703125 14.582031 -1.539062 13.28125 -0.78125 C 11.988281 -0.0195312 10.523438 0.359375 8.890625 0.359375 Z M 10.765625 -1.71875 C 11.910156 -1.71875 12.972656 -2.046875 13.953125 -2.703125 C 14.941406 -3.359375 15.835938 -4.347656 16.640625 -5.671875 L 16.640625 -15.859375 C 16.222656 -15.265625 15.613281 -14.769531 14.8125 -14.375 C 14.019531 -13.976562 13.15625 -13.578125 12.21875 -13.171875 C 11.28125 -12.773438 10.382812 -12.304688 9.53125 -11.765625 C 8.6875 -11.234375 7.988281 -10.535156 7.4375 -9.671875 C 6.882812 -8.804688 6.609375 -7.679688 6.609375 -6.296875 C 6.609375 -4.910156 6.976562 -3.800781 7.71875 -2.96875 C 8.46875 -2.132812 9.484375 -1.71875 10.765625 -1.71875 Z M 10.765625 -1.71875 "/></g></g></g><g fill="#080d1a" fill-opacity="1"><g transform="translate(470.535158, 91.774995)"><g><path d="M 7.421875 -39.78125 C 8.328125 -39.78125 9.109375 -39.445312 9.765625 -38.78125 C 10.421875 -38.125 10.75 -37.347656 10.75 -36.453125 C 10.75 -35.546875 10.421875 -34.765625 9.765625 -34.109375 C 9.109375 -33.453125 8.328125 -33.125 7.421875 -33.125 C 6.523438 -33.125 5.742188 -33.453125 5.078125 -34.109375 C 4.421875 -34.765625 4.09375 -35.546875 4.09375 -36.453125 C 4.09375 -37.347656 4.421875 -38.125 5.078125 -38.78125 C 5.742188 -39.445312 6.523438 -39.78125 7.421875 -39.78125 Z M 10.140625 -27.359375 L 10.140625 -4.84375 C 10.140625 -3.382812 10.441406 -2.394531 11.046875 -1.875 C 11.648438 -1.351562 12.664062 -1.09375 14.09375 -1.09375 L 14.09375 0 C 13.5 -0.03125 12.601562 -0.0703125 11.40625 -0.125 C 10.21875 -0.175781 9.015625 -0.203125 7.796875 -0.203125 C 6.617188 -0.203125 5.421875 -0.175781 4.203125 -0.125 C 2.992188 -0.0703125 2.097656 -0.03125 1.515625 0 L 1.515625 -1.09375 C 2.929688 -1.09375 3.941406 -1.351562 4.546875 -1.875 C 5.148438 -2.394531 5.453125 -3.382812 5.453125 -4.84375 L 5.453125 -21.109375 C 5.453125 -22.671875 5.175781 -23.820312 4.625 -24.5625 C 4.070312 -25.3125 3.035156 -25.6875 1.515625 -25.6875 L 1.515625 -26.78125 C 2.617188 -26.675781 3.691406 -26.625 4.734375 -26.625 C 5.734375 -26.625 6.691406 -26.679688 7.609375 -26.796875 C 8.535156 -26.921875 9.378906 -27.109375 10.140625 -27.359375 Z M 10.140625 -27.359375 "/></g></g></g><g fill="#080d1a" fill-opacity="1"><g transform="translate(485.770002, 91.774995)"><g><path d="M 9.78125 -40.765625 L 9.78125 -4.84375 C 9.78125 -3.382812 10.082031 -2.394531 10.6875 -1.875 C 11.289062 -1.351562 12.304688 -1.09375 13.734375 -1.09375 L 13.734375 0 C 13.140625 -0.03125 12.242188 -0.0703125 11.046875 -0.125 C 9.847656 -0.175781 8.644531 -0.203125 7.4375 -0.203125 C 6.257812 -0.203125 5.0625 -0.175781 3.84375 -0.125 C 2.632812 -0.0703125 1.734375 -0.03125 1.140625 0 L 1.140625 -1.09375 C 2.566406 -1.09375 3.582031 -1.351562 4.1875 -1.875 C 4.789062 -2.394531 5.09375 -3.382812 5.09375 -4.84375 L 5.09375 -34.53125 C 5.09375 -36.09375 4.816406 -37.242188 4.265625 -37.984375 C 3.710938 -38.734375 2.671875 -39.109375 1.140625 -39.109375 L 1.140625 -40.203125 C 2.253906 -40.097656 3.332031 -40.046875 4.375 -40.046875 C 5.375 -40.046875 6.332031 -40.101562 7.25 -40.21875 C 8.164062 -40.34375 9.007812 -40.523438 9.78125 -40.765625 Z M 9.78125 -40.765625 "/></g></g></g><g fill="#555555" fill-opacity="1"><g transform="translate(260.762334, 122.696604)"><g><path d="M 5.921875 -2.265625 L 2.03125 -2.265625 L 1.359375 0 L 0.1875 0 L 2.953125 -9.09375 L 5 -9.09375 L 7.765625 0 L 6.59375 0 Z M 3.90625 -8.625 L 2.328125 -3.28125 L 5.625 -3.28125 L 4.0625 -8.625 Z M 3.90625 -8.625 "/></g></g></g><g fill="#555555" fill-opacity="1"><g transform="translate(268.715897, 122.696604)"><g><path d="M 1.09375 -9.09375 L 6.859375 -9.09375 L 6.859375 -8.09375 L 4.53125 -8.09375 L 4.53125 -1.015625 L 6.859375 -1.015625 L 6.859375 0 L 1.09375 0 L 1.09375 -1.015625 L 3.4375 -1.015625 L 3.4375 -8.09375 L 1.09375 -8.09375 Z M 1.09375 -9.09375 "/></g></g></g><g fill="#555555" fill-opacity="1"><g transform="translate(276.669461, 122.696604)"><g/></g></g><g fill="#555555" fill-opacity="1"><g transform="translate(284.623024, 122.696604)"><g><path d="M 5.765625 -0.46875 L 5.921875 -0.46875 L 5.921875 -9.09375 L 7 -9.09375 L 7 0 L 4.828125 0 L 2.203125 -8.625 L 2.046875 -8.625 L 2.046875 0 L 0.953125 0 L 0.953125 -9.09375 L 3.140625 -9.09375 Z M 5.765625 -0.46875 "/></g></g></g><g fill="#555555" fill-opacity="1"><g transform="translate(292.576587, 122.696604)"><g><path d="M 1.21875 -9.09375 L 6.734375 -9.09375 L 6.734375 -8.09375 L 2.3125 -8.09375 L 2.3125 -5.0625 L 6.65625 -5.0625 L 6.65625 -4.0625 L 2.3125 -4.0625 L 2.3125 -1.015625 L 6.8125 -1.015625 L 6.8125 0 L 1.21875 0 Z M 1.21875 -9.09375 "/></g></g></g><g fill="#555555" fill-opacity="1"><g transform="translate(300.53015, 122.696604)"><g><path d="M 6.890625 0 L 4.90625 0 L 4.0625 -8.625 L 3.90625 -8.625 L 3.0625 0 L 1.0625 0 L 0.140625 -9.09375 L 1.125 -9.09375 L 2 -0.46875 L 2.15625 -0.46875 L 2.984375 -9.09375 L 4.984375 -9.09375 L 5.796875 -0.46875 L 5.953125 -0.46875 L 6.828125 -9.09375 L 7.8125 -9.09375 Z M 6.890625 0 "/></g></g></g><g fill="#555555" fill-opacity="1"><g transform="translate(308.483714, 122.696604)"><g><path d="M 6.125 -6.46875 C 6.125 -6.769531 6.0625 -7.03125 5.9375 -7.25 C 5.820312 -7.476562 5.664062 -7.664062 5.46875 -7.8125 C 5.269531 -7.957031 5.039062 -8.066406 4.78125 -8.140625 C 4.519531 -8.222656 4.25 -8.265625 3.96875 -8.265625 C 3.71875 -8.265625 3.476562 -8.234375 3.25 -8.171875 C 3.019531 -8.109375 2.816406 -8.015625 2.640625 -7.890625 C 2.460938 -7.765625 2.320312 -7.613281 2.21875 -7.4375 C 2.113281 -7.257812 2.0625 -7.054688 2.0625 -6.828125 L 2.0625 -6.75 C 2.0625 -6.5 2.113281 -6.285156 2.21875 -6.109375 C 2.320312 -5.929688 2.472656 -5.773438 2.671875 -5.640625 C 2.878906 -5.515625 3.132812 -5.410156 3.4375 -5.328125 C 3.75 -5.253906 4.109375 -5.1875 4.515625 -5.125 C 5.460938 -4.976562 6.160156 -4.695312 6.609375 -4.28125 C 7.066406 -3.875 7.296875 -3.320312 7.296875 -2.625 L 7.296875 -2.46875 C 7.296875 -2.082031 7.226562 -1.722656 7.09375 -1.390625 C 6.957031 -1.066406 6.753906 -0.785156 6.484375 -0.546875 C 6.222656 -0.316406 5.894531 -0.132812 5.5 0 C 5.113281 0.125 4.664062 0.1875 4.15625 0.1875 C 3.570312 0.1875 3.054688 0.101562 2.609375 -0.0625 C 2.171875 -0.238281 1.800781 -0.472656 1.5 -0.765625 C 1.195312 -1.066406 0.96875 -1.421875 0.8125 -1.828125 C 0.65625 -2.234375 0.578125 -2.671875 0.578125 -3.140625 L 0.578125 -3.53125 L 1.671875 -3.53125 L 1.671875 -3.21875 C 1.671875 -2.425781 1.890625 -1.828125 2.328125 -1.421875 C 2.765625 -1.023438 3.375 -0.828125 4.15625 -0.828125 C 4.832031 -0.828125 5.34375 -0.976562 5.6875 -1.28125 C 6.03125 -1.582031 6.203125 -1.976562 6.203125 -2.46875 L 6.203125 -2.546875 C 6.203125 -3.023438 6.023438 -3.390625 5.671875 -3.640625 C 5.316406 -3.890625 4.75 -4.070312 3.96875 -4.1875 C 3.507812 -4.25 3.09375 -4.34375 2.71875 -4.46875 C 2.351562 -4.59375 2.039062 -4.753906 1.78125 -4.953125 C 1.519531 -5.160156 1.316406 -5.40625 1.171875 -5.6875 C 1.035156 -5.976562 0.96875 -6.316406 0.96875 -6.703125 L 0.96875 -6.859375 C 0.96875 -7.210938 1.039062 -7.535156 1.1875 -7.828125 C 1.34375 -8.128906 1.550781 -8.390625 1.8125 -8.609375 C 2.070312 -8.828125 2.382812 -8.992188 2.75 -9.109375 C 3.125 -9.222656 3.535156 -9.28125 3.984375 -9.28125 C 4.492188 -9.28125 4.945312 -9.207031 5.34375 -9.0625 C 5.75 -8.914062 6.085938 -8.71875 6.359375 -8.46875 C 6.640625 -8.21875 6.851562 -7.925781 7 -7.59375 C 7.144531 -7.257812 7.21875 -6.910156 7.21875 -6.546875 L 7.21875 -6 L 6.125 -6 Z M 6.125 -6.46875 "/></g></g></g><g fill="#555555" fill-opacity="1"><g transform="translate(316.437277, 122.696604)"><g/></g></g><g fill="#555555" fill-opacity="1"><g transform="translate(324.39084, 122.696604)"><g><path d="M 3.0625 -4.546875 C 3.0625 -4.796875 3.148438 -5.007812 3.328125 -5.1875 C 3.503906 -5.363281 3.722656 -5.453125 3.984375 -5.453125 C 4.234375 -5.453125 4.445312 -5.363281 4.625 -5.1875 C 4.800781 -5.007812 4.890625 -4.796875 4.890625 -4.546875 C 4.890625 -4.296875 4.800781 -4.082031 4.625 -3.90625 C 4.445312 -3.726562 4.234375 -3.640625 3.984375 -3.640625 C 3.722656 -3.640625 3.503906 -3.726562 3.328125 -3.90625 C 3.148438 -4.082031 3.0625 -4.296875 3.0625 -4.546875 Z M 3.0625 -4.546875 "/></g></g></g><g fill="#555555" fill-opacity="1"><g transform="translate(332.344403, 122.696604)"><g/></g></g><g fill="#555555" fill-opacity="1"><g transform="translate(340.297966, 122.696604)"><g><path d="M 0.953125 -9.09375 L 3.9375 -9.09375 C 5.0625 -9.09375 5.882812 -8.820312 6.40625 -8.28125 C 6.925781 -7.75 7.1875 -6.894531 7.1875 -5.71875 L 7.1875 -3.375 C 7.1875 -2.195312 6.925781 -1.335938 6.40625 -0.796875 C 5.882812 -0.265625 5.0625 0 3.9375 0 L 0.953125 0 L 0.953125 -1.03125 L 1.734375 -1.03125 L 1.734375 -8.09375 L 0.953125 -8.09375 Z M 3.78125 -1.015625 C 4.175781 -1.015625 4.519531 -1.050781 4.8125 -1.125 C 5.101562 -1.207031 5.34375 -1.34375 5.53125 -1.53125 C 5.726562 -1.71875 5.867188 -1.96875 5.953125 -2.28125 C 6.046875 -2.59375 6.09375 -2.984375 6.09375 -3.453125 L 6.09375 -5.640625 C 6.09375 -6.117188 6.046875 -6.515625 5.953125 -6.828125 C 5.867188 -7.140625 5.726562 -7.390625 5.53125 -7.578125 C 5.34375 -7.765625 5.101562 -7.894531 4.8125 -7.96875 C 4.519531 -8.050781 4.175781 -8.09375 3.78125 -8.09375 L 2.828125 -8.09375 L 2.828125 -1.015625 Z M 3.78125 -1.015625 "/></g></g></g><g fill="#555555" fill-opacity="1"><g transform="translate(348.25153, 122.696604)"><g><path d="M 5.921875 -2.265625 L 2.03125 -2.265625 L 1.359375 0 L 0.1875 0 L 2.953125 -9.09375 L 5 -9.09375 L 7.765625 0 L 6.59375 0 Z M 3.90625 -8.625 L 2.328125 -3.28125 L 5.625 -3.28125 L 4.0625 -8.625 Z M 3.90625 -8.625 "/></g></g></g><g fill="#555555" fill-opacity="1"><g transform="translate(356.205093, 122.696604)"><g><path d="M 1.09375 -9.09375 L 6.859375 -9.09375 L 6.859375 -8.09375 L 4.53125 -8.09375 L 4.53125 -1.015625 L 6.859375 -1.015625 L 6.859375 0 L 1.09375 0 L 1.09375 -1.015625 L 3.4375 -1.015625 L 3.4375 -8.09375 L 1.09375 -8.09375 Z M 1.09375 -9.09375 "/></g></g></g><g fill="#555555" fill-opacity="1"><g transform="translate(364.158656, 122.696604)"><g><path d="M 1.125 -9.09375 L 2.21875 -9.09375 L 2.21875 -1.015625 L 6.984375 -1.015625 L 6.984375 0 L 1.125 0 Z M 1.125 -9.09375 "/></g></g></g><g fill="#555555" fill-opacity="1"><g transform="translate(372.112219, 122.696604)"><g><path d="M 3.4375 -3.203125 L 3.203125 -3.203125 L 0.34375 -9.09375 L 1.578125 -9.09375 L 3.90625 -4.140625 L 4.0625 -4.140625 L 6.390625 -9.09375 L 7.609375 -9.09375 L 4.765625 -3.203125 L 4.53125 -3.203125 L 4.53125 0 L 3.4375 0 Z M 3.4375 -3.203125 "/></g></g></g><g fill="#555555" fill-opacity="1"><g transform="translate(380.065783, 122.696604)"><g/></g></g><g fill="#555555" fill-opacity="1"><g transform="translate(388.019346, 122.696604)"><g><path d="M 0.953125 -9.09375 L 3.9375 -9.09375 C 5.0625 -9.09375 5.882812 -8.820312 6.40625 -8.28125 C 6.925781 -7.75 7.1875 -6.894531 7.1875 -5.71875 L 7.1875 -3.375 C 7.1875 -2.195312 6.925781 -1.335938 6.40625 -0.796875 C 5.882812 -0.265625 5.0625 0 3.9375 0 L 0.953125 0 L 0.953125 -1.03125 L 1.734375 -1.03125 L 1.734375 -8.09375 L 0.953125 -8.09375 Z M 3.78125 -1.015625 C 4.175781 -1.015625 4.519531 -1.050781 4.8125 -1.125 C 5.101562 -1.207031 5.34375 -1.34375 5.53125 -1.53125 C 5.726562 -1.71875 5.867188 -1.96875 5.953125 -2.28125 C 6.046875 -2.59375 6.09375 -2.984375 6.09375 -3.453125 L 6.09375 -5.640625 C 6.09375 -6.117188 6.046875 -6.515625 5.953125 -6.828125 C 5.867188 -7.140625 5.726562 -7.390625 5.53125 -7.578125 C 5.34375 -7.765625 5.101562 -7.894531 4.8125 -7.96875 C 4.519531 -8.050781 4.175781 -8.09375 3.78125 -8.09375 L 2.828125 -8.09375 L 2.828125 -1.015625 Z M 3.78125 -1.015625 "/></g></g></g><g fill="#555555" fill-opacity="1"><g transform="translate(395.972909, 122.696604)"><g><path d="M 1.09375 -9.09375 L 6.859375 -9.09375 L 6.859375 -8.09375 L 4.53125 -8.09375 L 4.53125 -1.015625 L 6.859375 -1.015625 L 6.859375 0 L 1.09375 0 L 1.09375 -1.015625 L 3.4375 -1.015625 L 3.4375 -8.09375 L 1.09375 -8.09375 Z M 1.09375 -9.09375 "/></g></g></g><g fill="#555555" fill-opacity="1"><g transform="translate(403.926472, 122.696604)"><g><path d="M 3.109375 -4.375 L 7.15625 -4.375 L 7.15625 0 L 6.15625 0 L 6.15625 -1.09375 L 6 -1.09375 C 5.84375 -0.707031 5.578125 -0.394531 5.203125 -0.15625 C 4.835938 0.0703125 4.40625 0.1875 3.90625 0.1875 C 2.925781 0.1875 2.15625 -0.128906 1.59375 -0.765625 C 1.039062 -1.398438 0.765625 -2.320312 0.765625 -3.53125 L 0.765625 -5.5625 C 0.765625 -6.738281 1.046875 -7.648438 1.609375 -8.296875 C 2.171875 -8.953125 2.957031 -9.28125 3.96875 -9.28125 C 4.488281 -9.28125 4.945312 -9.195312 5.34375 -9.03125 C 5.738281 -8.863281 6.070312 -8.628906 6.34375 -8.328125 C 6.613281 -8.023438 6.816406 -7.671875 6.953125 -7.265625 C 7.085938 -6.867188 7.15625 -6.441406 7.15625 -5.984375 L 7.15625 -5.828125 L 6.078125 -5.828125 L 6.078125 -5.984375 C 6.078125 -6.273438 6.035156 -6.554688 5.953125 -6.828125 C 5.867188 -7.109375 5.738281 -7.351562 5.5625 -7.5625 C 5.394531 -7.78125 5.179688 -7.953125 4.921875 -8.078125 C 4.660156 -8.203125 4.34375 -8.265625 3.96875 -8.265625 C 3.257812 -8.265625 2.726562 -8.007812 2.375 -7.5 C 2.03125 -6.988281 1.859375 -6.316406 1.859375 -5.484375 L 1.859375 -3.609375 C 1.859375 -2.722656 2.03125 -2.035156 2.375 -1.546875 C 2.726562 -1.066406 3.265625 -0.828125 3.984375 -0.828125 C 4.640625 -0.828125 5.148438 -1.035156 5.515625 -1.453125 C 5.890625 -1.867188 6.078125 -2.453125 6.078125 -3.203125 L 6.078125 -3.359375 L 3.109375 -3.359375 Z M 3.109375 -4.375 "/></g></g></g><g fill="#555555" fill-opacity="1"><g transform="translate(411.880036, 122.696604)"><g><path d="M 1.21875 -9.09375 L 6.734375 -9.09375 L 6.734375 -8.09375 L 2.3125 -8.09375 L 2.3125 -5.0625 L 6.65625 -5.0625 L 6.65625 -4.0625 L 2.3125 -4.0625 L 2.3125 -1.015625 L 6.8125 -1.015625 L 6.8125 0 L 1.21875 0 Z M 1.21875 -9.09375 "/></g></g></g><g fill="#555555" fill-opacity="1"><g transform="translate(419.833599, 122.696604)"><g><path d="M 6.125 -6.46875 C 6.125 -6.769531 6.0625 -7.03125 5.9375 -7.25 C 5.820312 -7.476562 5.664062 -7.664062 5.46875 -7.8125 C 5.269531 -7.957031 5.039062 -8.066406 4.78125 -8.140625 C 4.519531 -8.222656 4.25 -8.265625 3.96875 -8.265625 C 3.71875 -8.265625 3.476562 -8.234375 3.25 -8.171875 C 3.019531 -8.109375 2.816406 -8.015625 2.640625 -7.890625 C 2.460938 -7.765625 2.320312 -7.613281 2.21875 -7.4375 C 2.113281 -7.257812 2.0625 -7.054688 2.0625 -6.828125 L 2.0625 -6.75 C 2.0625 -6.5 2.113281 -6.285156 2.21875 -6.109375 C 2.320312 -5.929688 2.472656 -5.773438 2.671875 -5.640625 C 2.878906 -5.515625 3.132812 -5.410156 3.4375 -5.328125 C 3.75 -5.253906 4.109375 -5.1875 4.515625 -5.125 C 5.460938 -4.976562 6.160156 -4.695312 6.609375 -4.28125 C 7.066406 -3.875 7.296875 -3.320312 7.296875 -2.625 L 7.296875 -2.46875 C 7.296875 -2.082031 7.226562 -1.722656 7.09375 -1.390625 C 6.957031 -1.066406 6.753906 -0.785156 6.484375 -0.546875 C 6.222656 -0.316406 5.894531 -0.132812 5.5 0 C 5.113281 0.125 4.664062 0.1875 4.15625 0.1875 C 3.570312 0.1875 3.054688 0.101562 2.609375 -0.0625 C 2.171875 -0.238281 1.800781 -0.472656 1.5 -0.765625 C 1.195312 -1.066406 0.96875 -1.421875 0.8125 -1.828125 C 0.65625 -2.234375 0.578125 -2.671875 0.578125 -3.140625 L 0.578125 -3.53125 L 1.671875 -3.53125 L 1.671875 -3.21875 C 1.671875 -2.425781 1.890625 -1.828125 2.328125 -1.421875 C 2.765625 -1.023438 3.375 -0.828125 4.15625 -0.828125 C 4.832031 -0.828125 5.34375 -0.976562 5.6875 -1.28125 C 6.03125 -1.582031 6.203125 -1.976562 6.203125 -2.46875 L 6.203125 -2.546875 C 6.203125 -3.023438 6.023438 -3.390625 5.671875 -3.640625 C 5.316406 -3.890625 4.75 -4.070312 3.96875 -4.1875 C 3.507812 -4.25 3.09375 -4.34375 2.71875 -4.46875 C 2.351562 -4.59375 2.039062 -4.753906 1.78125 -4.953125 C 1.519531 -5.160156 1.316406 -5.40625 1.171875 -5.6875 C 1.035156 -5.976562 0.96875 -6.316406 0.96875 -6.703125 L 0.96875 -6.859375 C 0.96875 -7.210938 1.039062 -7.535156 1.1875 -7.828125 C 1.34375 -8.128906 1.550781 -8.390625 1.8125 -8.609375 C 2.070312 -8.828125 2.382812 -8.992188 2.75 -9.109375 C 3.125 -9.222656 3.535156 -9.28125 3.984375 -9.28125 C 4.492188 -9.28125 4.945312 -9.207031 5.34375 -9.0625 C 5.75 -8.914062 6.085938 -8.71875 6.359375 -8.46875 C 6.640625 -8.21875 6.851562 -7.925781 7 -7.59375 C 7.144531 -7.257812 7.21875 -6.910156 7.21875 -6.546875 L 7.21875 -6 L 6.125 -6 Z M 6.125 -6.46875 "/></g></g></g><g fill="#555555" fill-opacity="1"><g transform="translate(427.787162, 122.696604)"><g><path d="M 0.78125 -9.09375 L 7.171875 -9.09375 L 7.171875 -8.09375 L 4.53125 -8.09375 L 4.53125 0 L 3.4375 0 L 3.4375 -8.09375 L 0.78125 -8.09375 Z M 0.78125 -9.09375 "/></g></g></g></svg>